<?xml version="1.0" encoding="utf-8"?>
<!-- Generator: Adobe Illustrator 22.1.0, SVG Export Plug-In . SVG Version: 6.00 Build 0)  -->
<svg version="1.1" id="Слой_1" xmlns="http://www.w3.org/2000/svg" xmlns:xlink="http://www.w3.org/1999/xlink" x="0px" y="0px"
	 viewBox="0 0 17 17" style="enable-background:new 0 0 16.5 16.5;" xml:space="preserve">
<style type="text/css">
	.st0{fill:#231F20;}
</style>
<g>
	<rect x="4.2" y="1.8" class="st0" width="8.2" height="1"/>
	<path class="st0" d="M13.9,16.6H2.6C1.2,16.6,0,15.4,0,14V4.3C0,3,1.1,1.8,2.4,1.8l0.1,1C1.7,2.8,1,3.5,1,4.3V14
		c0,0.9,0.7,1.6,1.6,1.6h11.3c0.9,0,1.6-0.7,1.6-1.6V4.3c0-0.8-0.7-1.5-1.5-1.6l0.1-1c1.4,0.1,2.4,1.2,2.4,2.6V14
		C16.5,15.4,15.4,16.6,13.9,16.6z"/>
	<rect x="0.5" y="6.1" class="st0" width="15.5" height="1"/>
	<path class="st0" d="M3.3,4.4C2.6,4.4,2,3.8,2,3.1V1.4c0-0.8,0.6-1.4,1.4-1.4c0.8,0,1.4,0.6,1.4,1.4v1.7C4.7,3.8,4.1,4.4,3.3,4.4z
		 M3.3,1.1C3.1,1.1,3,1.2,3,1.4v1.7c0,0.2,0.2,0.4,0.4,0.4c0.2,0,0.4-0.2,0.4-0.4V1.4C3.7,1.2,3.5,1.1,3.3,1.1z"/>
	<path class="st0" d="M13.2,4.4c-0.8,0-1.4-0.6-1.4-1.4V1.4c0-0.8,0.6-1.4,1.4-1.4s1.4,0.6,1.4,1.4v1.7C14.5,3.8,13.9,4.4,13.2,4.4z
		 M13.2,1.1c-0.2,0-0.4,0.2-0.4,0.4v1.7c0,0.2,0.2,0.4,0.4,0.4s0.4-0.2,0.4-0.4V1.4C13.5,1.2,13.4,1.1,13.2,1.1z"/>
	<g>
		<g>
			<path class="st0" d="M7.8,13.1c0,0.1,0,0.2-0.1,0.3c-0.1,0.1-0.2,0.1-0.3,0.1H5.5c-0.2,0-0.3-0.1-0.3-0.2c-0.1-0.1-0.1-0.3,0-0.4
				l1.7-2.5c0-0.1,0-0.1,0-0.2c0-0.2-0.1-0.3-0.2-0.4C6.6,9.7,6.5,9.6,6.3,9.6c-0.2,0-0.3,0.1-0.4,0.2C5.8,9.9,5.8,10,5.8,10.2
				c0,0,0,0,0,0c0,0.1,0,0.2-0.1,0.3c-0.1,0.1-0.2,0.1-0.3,0.1c-0.1,0-0.2,0-0.3-0.1C5.1,10.5,5,10.4,5,10.3c0,0,0-0.1,0-0.1
				c0-0.4,0.1-0.7,0.4-0.9C5.7,9,6,8.9,6.3,8.9C6.7,8.9,7,9,7.3,9.3c0.3,0.3,0.4,0.6,0.4,0.9c0,0.2,0,0.4-0.1,0.5c0,0,0,0,0,0.1
				l-1.3,1.9h1.2c0.1,0,0.2,0,0.3,0.1C7.7,12.9,7.8,13,7.8,13.1z"/>
			<path class="st0" d="M7.4,13.5H5.5c-0.2,0-0.3-0.1-0.4-0.2C5,13.1,5,13,5.1,12.8l1.7-2.5c0,0,0-0.1,0-0.2c0-0.1,0-0.2-0.1-0.3
				C6.6,9.7,6.5,9.7,6.3,9.7c-0.1,0-0.2,0-0.3,0.1C5.9,9.9,5.9,10,5.9,10.2c0,0,0,0,0,0c0,0.1,0,0.2-0.1,0.3
				c-0.1,0.1-0.2,0.1-0.3,0.2c-0.1,0-0.2,0-0.3-0.1C5,10.5,5,10.4,5,10.3c0,0,0-0.1,0-0.1c0-0.4,0.1-0.7,0.4-1
				c0.3-0.3,0.6-0.4,1-0.4c0.4,0,0.7,0.1,1,0.4c0.3,0.3,0.4,0.6,0.4,1c0,0.2,0,0.4-0.1,0.6c0,0,0,0,0,0.1l-1.2,1.8h1.1
				c0.1,0,0.2,0,0.3,0.1c0.1,0.1,0.1,0.2,0.1,0.3s0,0.2-0.1,0.3C7.6,13.5,7.5,13.5,7.4,13.5z M6.3,9.5c0.2,0,0.3,0.1,0.5,0.2
				C6.9,9.9,7,10,7,10.2c0,0.1,0,0.2,0,0.2l-1.7,2.5c-0.1,0.1-0.1,0.2,0,0.3c0.1,0.1,0.1,0.2,0.3,0.2h1.9c0.1,0,0.2,0,0.2-0.1
				c0.1-0.1,0.1-0.1,0.1-0.2c0-0.1,0-0.2-0.1-0.2c-0.1-0.1-0.1-0.1-0.2-0.1H6.1l1.4-2c0,0,0,0,0,0c0.1-0.2,0.1-0.3,0.1-0.5
				c0-0.3-0.1-0.6-0.4-0.9C7,9.1,6.7,8.9,6.3,8.9C6,8.9,5.7,9.1,5.5,9.3c-0.2,0.2-0.4,0.5-0.4,0.9c0,0,0,0.1,0,0.1
				c0,0.1,0,0.2,0.1,0.2c0.1,0.1,0.1,0.1,0.2,0.1c0.1,0,0.2,0,0.2-0.1c0.1-0.1,0.1-0.1,0.1-0.2c0,0,0,0,0,0c0-0.2,0.1-0.3,0.2-0.5
				C6,9.6,6.2,9.5,6.3,9.5z"/>
		</g>
		<g>
			<path class="st0" d="M10.2,10c-0.1,0-0.2,0-0.3,0c-0.1,0-0.2-0.1-0.2-0.2c0-0.1,0-0.2,0-0.3c0-0.1,0.1-0.2,0.2-0.2l1-0.4
				c0.1,0,0.2,0,0.3,0c0.1,0.1,0.2,0.2,0.2,0.3v3.8c0,0.1,0,0.2-0.1,0.3c-0.1,0.1-0.2,0.1-0.3,0.1c-0.1,0-0.2,0-0.3-0.1
				c-0.1-0.1-0.1-0.2-0.1-0.3V9.8L10.2,10z"/>
			<path class="st0" d="M11.1,13.5c-0.1,0-0.2,0-0.3-0.1c-0.1-0.1-0.1-0.2-0.1-0.3V9.9L10.3,10c-0.1,0-0.2,0-0.3,0
				C9.8,10,9.7,9.9,9.7,9.8c0-0.1,0-0.2,0-0.3C9.8,9.3,9.8,9.2,10,9.2l1-0.4c0.1-0.1,0.3,0,0.4,0.1c0.1,0.1,0.2,0.2,0.2,0.4v3.8
				c0,0.1,0,0.2-0.1,0.3C11.3,13.5,11.2,13.5,11.1,13.5z M10.8,9.7v3.4c0,0.1,0,0.2,0.1,0.2c0.1,0.1,0.3,0.1,0.4,0
				c0.1-0.1,0.1-0.1,0.1-0.2V9.3c0-0.1,0-0.2-0.1-0.2C11.2,9,11.1,8.9,11,9l-1,0.4c-0.1,0-0.1,0.1-0.2,0.2c0,0.1,0,0.1,0,0.2
				c0,0.1,0.1,0.1,0.2,0.2c0.1,0,0.1,0,0.2,0L10.8,9.7z"/>
		</g>
	</g>
</g>
</svg>
