<?xml version="1.0" encoding="utf-8"?>
<!-- Generator: Adobe Illustrator 22.1.0, SVG Export Plug-In . SVG Version: 6.00 Build 0)  -->
<svg version="1.1" id="Слой_1" xmlns="http://www.w3.org/2000/svg" xmlns:xlink="http://www.w3.org/1999/xlink" x="0px" y="0px"
	 viewBox="0 0 17 17" style="enable-background:new 0 0 17 16.9;" xml:space="preserve">
<style type="text/css">
	.st0{fill:#231F20;}
</style>
<g>
	<path class="st0" d="M8.5,17C3.8,17,0,13.2,0,8.5l0,0C0,3.8,3.8,0,8.5,0C13.2,0,17,3.8,17,8.5C17,13.2,13.2,17,8.5,17z M1,8.5
		C1,12.6,4.4,16,8.5,16c4.1,0,7.5-3.4,7.5-7.5C16,4.4,12.6,1,8.5,1C4.4,1,1,4.4,1,8.5L1,8.5z"/>
	<path class="st0" d="M8.5,9C8.2,9,8,8.8,8,8.5V4.2c0-0.3,0.2-0.5,0.5-0.5S9,3.9,9,4.2v4.3C9,8.8,8.8,9,8.5,9z"/>
	<path class="st0" d="M12.8,9H8.5C8.2,9,8,8.8,8,8.5S8.2,8,8.5,8h4.3c0.3,0,0.5,0.2,0.5,0.5S13.1,9,12.8,9z"/>
</g>
</svg>
