<?xml version="1.0" encoding="utf-8"?>
<!-- Generator: Adobe Illustrator 22.1.0, SVG Export Plug-In . SVG Version: 6.00 Build 0)  -->
<svg version="1.1" id="Слой_1" xmlns="http://www.w3.org/2000/svg" xmlns:xlink="http://www.w3.org/1999/xlink" x="0px" y="0px"
	 viewBox="0 0 17 17" style="enable-background:new 0 0 17 17;" xml:space="preserve">
<style type="text/css">
	.st0{fill:#231F20;}
</style>
<g>
	<path class="st0" d="M8.3,10.3c0-0.1,0-0.3,0.1-0.4l3.6-3.6c0.3-0.1,0.6-0.1,0.8,0c0.2,0.1,0.2,0.5,0,0.7l-3.6,3.7
		c-0.2,0.2-0.5,0.2-0.7,0C8.4,10.6,8.3,10.5,8.3,10.3z"/>
	<path class="st0" d="M4.6,6.7c0-0.1,0-0.3,0.1-0.4c0.2-0.1,0.6-0.1,0.8,0l3.6,3.6c0.2,0.2,0.2,0.5,0,0.7s-0.5,0.3-0.7,0.1L4.8,7.1
		C4.6,7,4.6,6.8,4.6,6.7z"/>
</g>
</svg>
