<svg id="Слой_1" data-name="Слой 1" xmlns="http://www.w3.org/2000/svg" viewBox="0 0 45.71 43.83"><defs><style>.cls-1,.cls-2,.cls-3{fill:none;stroke-width:1.5px;}.cls-1,.cls-2{stroke:#000;stroke-miterlimit:10;}.cls-1,.cls-3{stroke-linecap:round;}.cls-3{stroke:#0f778b;stroke-linejoin:round;}</style></defs><title>Artboard 1</title><path class="cls-1" d="M1,42.92A25,25,0,0,1,15.58,32.8"/><path class="cls-1" d="M30.13,32.8A24.93,24.93,0,0,1,44.69,42.92"/><path class="cls-2" d="M30.13,28.36v4.37c0,4.37-3.15,7.94-7,7.94a6.66,6.66,0,0,1-5-2.33A8.47,8.47,0,0,1,16,32.73v-4"/><path class="cls-2" d="M37.32,35.63v-9.1C37.32,14.62,30.9,5,23,5S8.68,14.62,8.68,26.53v9.06"/><path class="cls-2" d="M27.93,12.19s12,14.53-4.25,21.38c0,0-9.36-2.79-9.86-9.09S24.57,16.58,27.93,12.19Z"/><path class="cls-3" d="M25.24,28.72c19.74-2,13.4-12.17,13.4-12.17a15.64,15.64,0,0,0-31.28,0S4.75,20.4,8.84,24.67"/><path class="cls-3" d="M25.24,28.72a2,2,0,1,1-2-2A2,2,0,0,1,25.24,28.72Z"/></svg>